<?xml version="1.0" encoding="utf-8"?>
<!-- Generator: Adobe Illustrator 25.1.0, SVG Export Plug-In . SVG Version: 6.00 Build 0)  -->
<svg version="1.1" xmlns="http://www.w3.org/2000/svg" xmlns:xlink="http://www.w3.org/1999/xlink" x="0px" y="0px" width="1275px"
	 height="2214px" viewBox="0 0 1275 2214" style="enable-background:new 0 0 1275 2214;" xml:space="preserve">
<g id="Слой_1-mob">
	
		<image style="overflow:visible;" width="1700" height="2952" id="Слой_1_xA0_Изображение" xlink:href="50FE06C3.png"  transform="matrix(0.75 0 0 0.75 0 0)">
	</image>
</g>
<g id="contuct-us-mob">
	
		<image style="overflow:visible;" width="448" height="70" id="contuct-us_xA0_Изображение" xlink:href="50FE06C1.png"  transform="matrix(0.75 0 0 0.75 787.5 1641.75)">
	</image>
</g>
<g id="street-mob">
	
		<image style="overflow:visible;" width="557" height="170" id="street_xA0_Изображение" xlink:href="50FE06C7.png"  transform="matrix(0.75 0 0 0.75 784.5 1449)">
	</image>
</g>
<g id="adress-mob">
	
		<image style="overflow:visible;" width="148" height="72" id="adress_xA0_Изображение" xlink:href="50FE06C0.png"  transform="matrix(0.75 0 0 0.75 893.25 1359.75)">
	</image>
</g>
<g id="other-mob">
	
		<image style="overflow:visible;" width="631" height="44" id="other_xA0_Изображение" xlink:href="50FE06CE.png"  transform="matrix(0.75 0 0 0.75 402.75 1066.5)">
	</image>
</g>
<g id="deinde-mob">
	
		<image style="overflow:visible;" width="816" height="38" id="deinde_xA0_Изображение" xlink:href="50FE06CF.png"  transform="matrix(0.75 0 0 0.75 333 891)">
	</image>
</g>
<g id="eurotrip-mob">
	
		<image style="overflow:visible;" width="556" height="42" id="eurotrip_xA0_Изображение" xlink:href="50FE06C2.png"  transform="matrix(0.75 0 0 0.75 432 711)">
	</image>
</g>
<g id="dream-trip-mob">
	
		<image style="overflow:visible;" width="608" height="41" id="dream-trip_xA0_Изображение" xlink:href="50FE06C5.png"  transform="matrix(0.75 0 0 0.75 411 530.25)">
	</image>
</g>
<g id="prises-mob">
	
		<image style="overflow:visible;" width="322" height="80" id="prises_xA0_Изображение" xlink:href="50FE06C6.png"  transform="matrix(0.75 0 0 0.75 513.75 305.25)">
	</image>
</g>
<g id="telegram-mob">
	
		<image style="overflow:visible;" width="134" height="140" id="telegram_xA0_Изображение" xlink:href="B4B6FA30.png"  transform="matrix(0.75 0 0 0.75 777.75 2042.25)">
	</image>
</g>
<g id="youtube-mob">
	
		<image style="overflow:visible;" width="140" height="140" id="youtube_xA0_Изображение" xlink:href="B4B6FA37.png"  transform="matrix(0.75 0 0 0.75 645.75 2042.25)">
	</image>
</g>
<g id="insta-mob">
	
		<image style="overflow:visible;" width="138" height="140" id="insta_xA0_Изображение" xlink:href="B4B6FA31.png"  transform="matrix(0.75 0 0 0.75 519.75 2042.25)">
	</image>
</g>
<g id="fb-mob">
	
		<image style="overflow:visible;" width="136" height="140" id="fb_xA0_Изображение" xlink:href="B4B6FA33.png"  transform="matrix(0.75 0 0 0.75 393.75 2042.25)">
	</image>
</g>
<g id="email-mob">
	
		<image style="overflow:visible;" width="308" height="49" id="email_xA0_Изображение" xlink:href="B4B6FA2E.png"  transform="matrix(0.75 0 0 0.75 787.5 1777.5)">
	</image>
</g>
<g id="telephone-mob">
	
		<image style="overflow:visible;" width="260" height="44" id="telephone_xA0_Изображение" xlink:href="B4B6FA2F.png"  transform="matrix(0.75 0 0 0.75 789.75 1731)">
	</image>
</g>
<g id="buy-ticket-button3-mob">
	
		<image style="overflow:visible;" width="394" height="104" id="buy-ticket-button3_xA0_Изображение" xlink:href="B4B6FA50.png"  transform="matrix(0.75 0 0 0.75 783.75 1862.25)">
	</image>
</g>
<g id="boat-mob">
	
		<image style="overflow:visible;" width="382" height="136" id="boat_xA0_Изображение" xlink:href="B4B6FA53.png"  transform="matrix(0.75 0 0 0.75 603.75 944.25)">
	</image>
</g>
<g id="boats-mob">
	
		<image style="overflow:visible;" width="480" height="116" id="boats_xA0_Изображение" xlink:href="B4B6FA51.png"  transform="matrix(0.75 0 0 0.75 633.75 590.25)">
	</image>
</g>
<g id="hill-mob">
	
		<image style="overflow:visible;" width="248" height="52" id="hill_xA0_Изображение" xlink:href="B4B6FA57.png"  transform="matrix(0.75 0 0 0.75 927.75 548.25)">
	</image>
</g>
<g id="tower-mob">
	
		<image style="overflow:visible;" width="142" height="344" id="tower_xA0_Изображение" xlink:href="B4B6FA4B.png"  transform="matrix(0.75 0 0 0.75 984.75 297.75)">
	</image>
</g>
<g id="buy-ticket-button2-mob">
	
		<image style="overflow:visible;" width="412" height="108" id="buy-ticket-button2_xA0_Изображение" xlink:href="B4B6FA75.png"  transform="matrix(0.75 0 0 0.75 471.75 26.25)">
	</image>
</g>
</svg>
