<?xml version="1.0" encoding="utf-8"?>
<!-- Generator: Adobe Illustrator 25.1.0, SVG Export Plug-In . SVG Version: 6.00 Build 0)  -->
<svg version="1.1" xmlns="http://www.w3.org/2000/svg" xmlns:xlink="http://www.w3.org/1999/xlink" x="0px" y="0px" width="1275px"
	 height="1674px" viewBox="0 0 1275 1674" style="enable-background:new 0 0 1275 1674;" xml:space="preserve">
<g id="Слой_3-mob">
	
		<image style="overflow:visible;" width="1700" height="2232" id="Слой_3_xA0_Изображение" xlink:href="26861E63.png"  transform="matrix(0.75 0 0 0.75 0 0)">
	</image>
</g>
<g id="what-mob">
	
		<image style="overflow:visible;" width="251" height="81" id="what_xA0_Изображение" xlink:href="26861E61.png"  transform="matrix(0.75 0 0 0.75 543.75 1572)">
	</image>
</g>
<g id="about-text-mob">
	
		<image style="overflow:visible;" width="815" height="138" id="about-text_xA0_Изображение" xlink:href="26861E67.png"  transform="matrix(0.75 0 0 0.75 615 1392)">
	</image>
</g>
<g id="about-name-mob">
	
		<image style="overflow:visible;" width="155" height="40" id="about-name_xA0_Изображение" xlink:href="26861E60.png"  transform="matrix(0.75 0 0 0.75 378.75 1326.75)">
	</image>
</g>
<g id="about-quote-mob">
	
		<image style="overflow:visible;" width="488" height="173" id="about-quote_xA0_Изображение" xlink:href="26861E6E.png"  transform="matrix(0.75 0 0 0.75 379.5 1185)">
	</image>
</g>
<g id="about-mob">
	
		<image style="overflow:visible;" width="299" height="74" id="about_xA0_Изображение" xlink:href="26861E6F.png"  transform="matrix(0.75 0 0 0.75 526.5 1065)">
	</image>
</g>
<g id="april-mob">
	
		<image style="overflow:visible;" width="206" height="63" id="april_xA0_Изображение" xlink:href="26861E62.png"  transform="matrix(0.75 0 0 0.75 554.25 460.5)">
	</image>
</g>
<g id="vdnh-mob">
	
		<image style="overflow:visible;" width="102" height="62" id="vdnh_xA0_Изображение" xlink:href="26861E65.png"  transform="matrix(0.75 0 0 0.75 732.75 460.5)">
	</image>
</g>
<g id="kiev-mob">
	
		<image style="overflow:visible;" width="99" height="61" id="kiev_xA0_Изображение" xlink:href="26861E66.png"  transform="matrix(0.75 0 0 0.75 459.75 459.75)">
	</image>
</g>
<g id="travel-mob">
	
		<image style="overflow:visible;" width="547" height="124" id="travel_xA0_Изображение" xlink:href="91626450.png"  transform="matrix(0.75 0 0 0.75 428.25 336.75)">
	</image>
</g>
<g id="eat-love-mob">
	
		<image style="overflow:visible;" width="351" height="76" id="eat-love_xA0_Изображение" xlink:href="91626457.png"  transform="matrix(0.75 0 0 0.75 501 277.5)">
	</image>
</g>
<g id="heart-point-mob">
	
		<image style="overflow:visible;" width="68" height="96" id="heart-point_xA0_Изображение" xlink:href="91626451.png"  transform="matrix(0.75 0 0 0.75 969.75 1148.25)">
	</image>
</g>
<g id="buy-ticket-button1-mob">
	
		<image style="overflow:visible;" width="520" height="162" id="buy-ticket-button1_xA0_Изображение" xlink:href="91626453.png"  transform="matrix(0.75 0 0 0.75 495.75 518.25)">
	</image>
</g>
<g id="baloons-small-mob">
	
		<image style="overflow:visible;" width="124" height="210" id="baloons-small_xA0_Изображение" xlink:href="9162644E.png"  transform="matrix(0.75 0 0 0.75 537.75 44.25)">
	</image>
</g>
<g id="baloon1-mob">
	
		<image style="overflow:visible;" width="133" height="192" id="baloon1_xA0_Изображение" xlink:href="9162644F.png"  transform="matrix(0.75 0 0 0.75 621.75 98.25)">
	</image>
</g>
</svg>
