<?xml version="1.0" encoding="utf-8"?>
<!-- Generator: Adobe Illustrator 25.1.0, SVG Export Plug-In . SVG Version: 6.00 Build 0)  -->
<svg version="1.1" xmlns="http://www.w3.org/2000/svg" xmlns:xlink="http://www.w3.org/1999/xlink" x="0px" y="0px" width="2160px"
	 height="2214px" viewBox="0 0 2160 2214" style="enable-background:new 0 0 2160 2214;" xml:space="preserve">
<g id="back-down">
	
		<image style="overflow:visible;" width="2880" height="2952" id="Слой_1_xA0_Изображение" xlink:href="7F9ED4BA.png"  transform="matrix(0.75 0 0 0.75 0 0)">
	</image>
</g>
<g id="telegram">
	
		<image style="overflow:visible;" width="134" height="140" id="telegram_xA0_Изображение" xlink:href="7F9ED4BE.png"  transform="matrix(0.75 0 0 0.75 1220.25 2042.25)">
	</image>
</g>
<g id="youtube">
	
		<image style="overflow:visible;" width="140" height="140" id="youtube_xA0_Изображение" xlink:href="7F9ED4B9.png"  transform="matrix(0.75 0 0 0.75 1088.25 2042.25)">
	</image>
</g>
<g id="insta">
	
		<image style="overflow:visible;" width="138" height="140" id="insta_xA0_Изображение" xlink:href="7F9ED4BB.png"  transform="matrix(0.75 0 0 0.75 962.25 2042.25)">
	</image>
</g>
<g id="fb">
	
		<image style="overflow:visible;" width="136" height="140" id="fb_xA0_Изображение" xlink:href="7F9ED4B8.png"  transform="matrix(0.75 0 0 0.75 836.25 2042.25)">
	</image>
</g>
<g id="email">
	
		<image style="overflow:visible;" width="308" height="49" id="email_xA0_Изображение" xlink:href="7F9ED4C6.png"  transform="matrix(0.75 0 0 0.75 1230 1777.5)">
	</image>
</g>
<g id="telephone">
	
		<image style="overflow:visible;" width="260" height="44" id="telephone_xA0_Изображение" xlink:href="7F9ED4C9.png"  transform="matrix(0.75 0 0 0.75 1232.25 1731)">
	</image>
</g>
<g id="buy-ticket-button3">
	
		<image style="overflow:visible;" width="394" height="104" id="buy-ticket-button3_xA0_Изображение" xlink:href="7F9ED4CA.png"  transform="matrix(0.75 0 0 0.75 1226.25 1862.25)">
	</image>
</g>
<g id="boat">
	
		<image style="overflow:visible;" width="382" height="136" id="boat_xA0_Изображение" xlink:href="7F9ED4C8.png"  transform="matrix(0.75 0 0 0.75 1046.25 944.25)">
	</image>
</g>
<g id="boats">
	
		<image style="overflow:visible;" width="480" height="116" id="boats_xA0_Изображение" xlink:href="71F4BF3D.png"  transform="matrix(0.75 0 0 0.75 1076.25 590.25)">
	</image>
</g>
<g id="hill">
	
		<image style="overflow:visible;" width="248" height="52" id="hill_xA0_Изображение" xlink:href="71F4BF33.png"  transform="matrix(0.75 0 0 0.75 1370.25 548.25)">
	</image>
</g>
<g id="tower">
	
		<image style="overflow:visible;" width="142" height="344" id="tower_xA0_Изображение" xlink:href="71F4BF35.png"  transform="matrix(0.75 0 0 0.75 1427.25 297.75)">
	</image>
</g>
<g id="buy-ticket-button2">
	
		<image style="overflow:visible;" width="412" height="108" id="buy-ticket-button2_xA0_Изображение" xlink:href="71F4BF37.png"  transform="matrix(0.75 0 0 0.75 914.25 26.25)">
	</image>
</g>
</svg>
